<svg xmlns="http://www.w3.org/2000/svg" viewBox="0 0 241.16 76.2"><defs><style>.cls-1,.cls-8{fill:none;}.cls-2,.cls-7{fill:#e3a645;}.cls-3{fill:#d0665b;}.cls-4{fill:#9acce5;}.cls-5,.cls-6{fill:#434043;}.cls-6{font-size:39.13px;font-family:Poppins-ExtraBoldItalic, Poppins;font-weight:800;font-style:italic;}.cls-7{font-size:26.56px;font-family:Poppins-Regular, Poppins;}.cls-8{stroke:#434043;stroke-linecap:round;stroke-linejoin:round;stroke-width:0.77px;}</style></defs><g id="OBJECTS"><path class="cls-1" d="M19.6,17.54C20.88,20,22.14,22.49,23.39,25c.66,1.34,1.33,2.69,2,4h1.83c-1.87-3.61-3.78-7.69-5.55-11.46Z"/><path class="cls-1" d="M82,33.58c0-.13.06-.26.08-.39.07-.35.13-.71.2-1.1H77.83a4.65,4.65,0,0,1-.41,1.23C76,35.7,40.58,41,35,39.56c-1.67-.42-3.82-3.41-6.09-7.47H27C30.49,38.64,34,44,37.57,44c13.44,0,39.9-4.52,43.48-8.09A5.16,5.16,0,0,0,82,33.58Z"/><path class="cls-1" d="M78.38,29h4.24c.17-1.84.3-3.82.41-5.64s.25-3.89.42-5.82H79.57C79.25,21.46,78.83,25.83,78.38,29Z"/><path class="cls-2" d="M21.68,17.54c1.77,3.77,3.68,7.85,5.55,11.46H78.38c.45-3.17.87-7.54,1.19-11.46Z"/><path class="cls-3" d="M80.15,6.75H18c.7,1.36,1.45,2.92,2.25,4.6H79.82C80,9.51,80.07,7.89,80.15,6.75Z"/><path class="cls-4" d="M35,40.77c5.6,1.43,41-3.86,42.44-6.24a4.65,4.65,0,0,0,.41-1.23H28.89C31.16,37.36,33.31,40.35,35,40.77Z"/><path class="cls-5" d="M91.6,1.53c-5.1,0-6.95,5.86-7.83,12.92H17.91C13.32,6.37,8.21,0,1.54,0a1.55,1.55,0,0,0,0,3.09c4.75,0,9,4.95,12.78,11.36h-.57a1.55,1.55,0,0,0,0,3.09h2.33c1.58,2.87,3.09,5.9,4.54,8.83.44.89.88,1.77,1.32,2.63h-.55a1.55,1.55,0,1,0,0,3.09h2.12c4.38,8.47,8.58,15,14.06,15,9.5,0,29.35-2.59,39.72-6C69.67,47.57,54.71,50.51,43,52.81,31.66,55,26.18,56.25,25.62,59.49a3.11,3.11,0,0,0,.76,2.67c1.76,2,6.27,2.31,8.93,2.31v1.87a4.14,4.14,0,1,0,3.09,0V64.43H72.45v1.91a4.14,4.14,0,1,0,3.09,0V64.43H83.6a1.55,1.55,0,1,0,0-3.09H36.78c-4.1.2-7.8-.55-8.13-1.29.7-1.42,8.93-3,14.94-4.22C60,52.62,82.38,48.21,85.05,33.93a2.21,2.21,0,0,1,0-.25l0-.14v0c.09-.44.17-.92.24-1.42h1.35a1.55,1.55,0,0,0,0-3.09h-1c.14-1.62.27-3.43.39-5.44s.26-4,.44-6h1.08a1.55,1.55,0,1,0,0-3.09h-.74c.69-5.34,2-9.84,4.71-9.84a1.54,1.54,0,1,0,0-3.08ZM27,32.09H82.25c-.07.39-.13.75-.2,1.1,0,.13,0,.26-.08.39a5.16,5.16,0,0,1-.92,2.29C77.47,39.44,51,44,37.57,44,34,44,30.49,38.64,27,32.09Zm56-8.73c-.11,1.82-.24,3.8-.41,5.64H25.4c-.68-1.32-1.35-2.67-2-4-1.25-2.5-2.51-5-3.79-7.45H83.45C83.28,19.47,83.16,21.44,83,23.36Z"/><text class="cls-6" transform="translate(113.6 34.84)">Smart</text><text class="cls-7" transform="translate(113.6 61.01)">Shopping</text><line class="cls-8" x1="101.68" y1="11.35" x2="101.68" y2="59.83"/></g></svg>